<svg width="58" height="57" viewBox="0 0 58 57" fill="none" xmlns="http://www.w3.org/2000/svg">
<path d="M38.3269 24.9114C37.9952 24.5836 37.5477 24.3998 37.0814 24.3998C36.615 24.3998 36.1675 24.5836 35.8359 24.9114L25.6134 35.1339L21.8769 31.3974C21.5452 31.0696 21.0977 30.8858 20.6314 30.8858C20.165 30.8858 19.7175 31.0696 19.3859 31.3974C18.7044 32.0789 18.7044 33.2069 19.3859 33.8884L23.9449 38.4474C24.8614 39.3638 26.3419 39.3638 27.2584 38.4474L38.3034 27.4024C39.0084 26.7209 39.0084 25.5929 38.3269 24.9114ZM45.3769 7.21587H43.0269V4.86587C43.0269 3.57337 41.9694 2.51587 40.6769 2.51587C39.3844 2.51587 38.3269 3.57337 38.3269 4.86587V7.21587H19.5269V4.86587C19.5269 3.57337 18.4694 2.51587 17.1769 2.51587C15.8844 2.51587 14.8269 3.57337 14.8269 4.86587V7.21587H12.4769C9.86836 7.21587 7.80036 9.33087 7.80036 11.9159L7.77686 44.8158C7.77686 46.0624 8.27203 47.2578 9.15345 48.1392C10.0349 49.0207 11.2303 49.5158 12.4769 49.5158H45.3769C47.9619 49.5158 50.0769 47.4008 50.0769 44.8158V11.9159C50.0769 9.33087 47.9619 7.21587 45.3769 7.21587ZM43.0269 44.8158H14.8269C13.5344 44.8158 12.4769 43.7583 12.4769 42.4658V18.9659H45.3769V42.4658C45.3769 43.7583 44.3194 44.8158 43.0269 44.8158Z" fill="url(#paint0_linear_1_69)"/>
<defs>
<linearGradient id="paint0_linear_1_69" x1="9.65686" y1="-16.0883" x2="48.0479" y2="-15.4913" gradientUnits="userSpaceOnUse">
<stop stop-color="#E39F24"/>
<stop offset="1" stop-color="#AB6E00"/>
</linearGradient>
</defs>
</svg>
