<svg width="58" height="56" viewBox="0 0 58 56" fill="none" xmlns="http://www.w3.org/2000/svg">
<path d="M17.1281 23.1659H12.4281C11.8049 23.1659 11.2071 22.9236 10.7664 22.4923C10.3257 22.0609 10.0781 21.4759 10.0781 20.8659C10.0781 20.2559 10.3257 19.6709 10.7664 19.2396C11.2071 18.8082 11.8049 18.5659 12.4281 18.5659H17.1281C17.7514 18.5659 18.3491 18.8082 18.7898 19.2396C19.2305 19.6709 19.4781 20.2559 19.4781 20.8659C19.4781 21.4759 19.2305 22.0609 18.7898 22.4923C18.3491 22.9236 17.7514 23.1659 17.1281 23.1659Z" fill="url(#paint0_linear_1_83)"/>
<path d="M52.5426 13.6646C51.8823 13.3193 51.1388 13.1557 50.3911 13.1909C49.6434 13.2261 48.9194 13.459 48.2961 13.8647L40.6281 18.8672V16.3096C40.6262 14.7735 40.0019 13.301 38.8922 12.2148C37.7824 11.1287 36.2778 10.5177 34.7084 10.5159H8.94773C7.37831 10.5177 5.87371 11.1287 4.76396 12.2148C3.65422 13.301 3.02994 14.7735 3.02808 16.3096V39.2222C3.02994 40.7582 3.65422 42.2308 4.76396 43.3169C5.87371 44.403 7.37831 45.014 8.94773 45.0159H34.7084C36.2778 45.014 37.7824 44.403 38.8922 43.3169C40.0019 42.2308 40.6262 40.7582 40.6281 39.2222V36.6646L48.2961 41.6671C48.9193 42.0732 49.6434 42.3062 50.3912 42.3414C51.139 42.3765 51.8826 42.2125 52.5426 41.8667C53.2027 41.5209 53.7546 41.0063 54.1395 40.3778C54.5243 39.7492 54.7277 39.0303 54.7281 38.2976V17.2342C54.7276 16.5014 54.5241 15.7824 54.1392 15.1539C53.7544 14.5253 53.2026 14.0106 52.5426 13.6646ZM35.9281 39.2222C35.9281 39.5387 35.7996 39.8424 35.5709 40.0662C35.3421 40.2901 35.0319 40.4159 34.7084 40.4159H8.94773C8.62426 40.4159 8.31403 40.2901 8.0853 40.0662C7.85658 39.8424 7.72808 39.5387 7.72808 39.2222V16.3096C7.72808 15.993 7.85658 15.6894 8.0853 15.4655C8.31403 15.2416 8.62426 15.1159 8.94773 15.1159H34.7084C35.0319 15.1159 35.3421 15.2416 35.5709 15.4655C35.7996 15.6894 35.9281 15.993 35.9281 16.3096V39.2222ZM50.0281 37.2695L40.6281 31.1354V24.3964L50.0281 18.2623V37.2695Z" fill="url(#paint1_linear_1_83)"/>
<defs>
<linearGradient id="paint0_linear_1_83" x1="10.4959" y1="16.7451" x2="19.0187" y2="17.046" gradientUnits="userSpaceOnUse">
<stop stop-color="#E39F24"/>
<stop offset="1" stop-color="#AB6E00"/>
</linearGradient>
<linearGradient id="paint1_linear_1_83" x1="5.32585" y1="-3.14039" x2="52.2282" y2="-1.92588" gradientUnits="userSpaceOnUse">
<stop stop-color="#E39F24"/>
<stop offset="1" stop-color="#AB6E00"/>
</linearGradient>
</defs>
</svg>
