<svg width="47" height="47" viewBox="0 0 47 47" fill="none" xmlns="http://www.w3.org/2000/svg">
<g clip-path="url(#clip0_1_26)">
<path d="M45.7237 41.1369H41.619C42.1781 40.3913 42.5098 39.4658 42.5098 38.4642C42.5098 36.0029 40.5074 34.0005 38.0461 34.0005H35.1677C35.5207 33.4289 35.7249 32.7562 35.7249 32.0365V31.0544C35.7249 30.5615 35.3252 30.1617 34.8322 30.1617C34.3392 30.1617 33.9395 30.5615 33.9395 31.0544V32.0365C33.9395 33.1194 33.0584 34.0005 31.9754 34.0005H26.8272C26.2365 34.0005 25.7559 33.5199 25.7559 32.9292C25.7559 32.3385 26.2365 31.8579 26.8272 31.8579H30.9041C31.3971 31.8579 31.7969 31.4581 31.7969 30.9652V24.225C31.7969 23.732 31.3971 23.3322 30.9041 23.3322C30.4112 23.3322 30.0114 23.732 30.0114 24.225V30.0724H26.8272C25.252 30.0724 23.9705 31.354 23.9705 32.9292C23.9705 33.308 24.0452 33.6695 24.1797 34.0005H21.7374C21.7147 32.7915 20.9857 31.7174 19.8645 31.2536L17.513 30.2809V27.9422H18.7002C24.3468 27.9422 28.9756 23.5029 29.2808 17.9311H29.8328C32.0972 17.9311 33.9395 19.7734 33.9395 22.0377V23.0198C33.9395 23.5128 34.3392 23.9125 34.8322 23.9125C35.3252 23.9125 35.7249 23.5128 35.7249 23.0198V22.0377C35.7249 19.1879 33.6911 16.8046 30.9988 16.262C32.2566 15.1072 33.0467 13.4504 33.0467 11.6123C33.0467 8.05193 31.1152 4.7628 28.006 3.02846L24.3185 0.971406C24.1661 0.853564 23.9756 0.784912 23.7724 0.784912H23.7519C23.5487 0.784912 23.3582 0.853564 23.2058 0.971406L19.5184 3.02838C16.4092 4.7628 14.4777 8.05193 14.4777 11.6123C14.4777 13.4504 15.2677 15.1072 16.5256 16.262C13.8333 16.8047 11.7994 19.1879 11.7994 22.0378V32.0365C11.7994 32.7563 12.0037 33.429 12.3567 34.0006H9.47829C7.017 34.0006 5.01458 36.003 5.01458 38.4643C5.01458 39.4659 5.34623 40.3914 5.90536 41.137H1.8007C1.30773 41.137 0.907959 41.5368 0.907959 42.0297C0.907959 44.491 2.91038 46.4934 5.37168 46.4934H42.1527C44.614 46.4934 46.6164 44.491 46.6164 42.0297C46.6164 41.5367 46.2166 41.1369 45.7237 41.1369ZM40.7243 38.4643C40.7243 39.8856 39.6112 41.0514 38.2111 41.137H22.2383C23.1899 40.573 24.0709 39.885 24.85 39.0839C26.8883 36.9881 29.7341 35.7862 32.6577 35.7862H38.0461C39.5229 35.7861 40.7243 36.9875 40.7243 38.4643ZM26.7975 13.1048C26.7975 14.7785 25.4359 16.1401 23.7622 16.1401C22.0885 16.1401 20.7269 14.7785 20.7269 13.1048V11.9717C20.7269 10.298 22.0885 8.93637 23.7622 8.93637C25.4359 8.93637 26.7975 10.298 26.7975 11.9717V13.1048ZM16.2631 11.6123C16.2631 8.69872 17.8437 6.00701 20.3882 4.58764L23.7622 2.70565L27.1362 4.58782C29.6806 6.0071 31.2612 8.69872 31.2612 11.6123C31.2612 13.8248 29.6657 15.6704 27.5651 16.0622C28.2021 15.2449 28.583 14.2188 28.583 13.1048V11.9717C28.583 9.31347 26.4203 7.15088 23.7622 7.15088C21.104 7.15088 18.9414 9.31347 18.9414 11.9717V13.1048C18.9414 14.2188 19.3223 15.2449 19.9593 16.0622C17.8587 15.6704 16.2631 13.8248 16.2631 11.6123ZM13.5849 32.0365V22.0378C13.5849 19.7735 15.4272 17.9312 17.6915 17.9312H27.4918C27.1892 22.5177 23.362 26.1568 18.7002 26.1568H17.513V24.2194C17.513 23.7264 17.1132 23.3267 16.6202 23.3267C16.1273 23.3267 15.7275 23.7264 15.7275 24.2194V30.8778C15.7275 31.239 15.9451 31.5646 16.279 31.7027L19.1821 32.9035C19.6511 33.0976 19.9541 33.5508 19.9541 34.0584V35.7804C19.9541 36.3712 19.4735 36.8517 18.8828 36.8517C18.2921 36.8517 17.8115 36.3712 17.8115 35.7804V34.8932C17.8115 34.4003 17.4117 34.0005 16.9188 34.0005H15.5489C14.466 34.0006 13.5849 33.1194 13.5849 32.0365ZM6.80006 38.4643C6.80006 36.9875 8.00152 35.7861 9.47829 35.7861H16.0261C16.0292 37.3586 17.3094 38.6372 18.8828 38.6372C20.4562 38.6372 21.7364 37.3586 21.7395 35.786H26.1816C25.2299 36.3499 24.3491 37.038 23.57 37.839C21.5316 39.9348 18.6858 41.1368 15.7622 41.1368H9.31331C7.91314 41.0514 6.80006 39.8855 6.80006 38.4643ZM42.1527 44.7079H5.37168C4.20772 44.7079 3.2149 43.9616 2.84646 42.9224H44.6779C44.3095 43.9616 43.3167 44.7079 42.1527 44.7079Z" fill="#E39F24"/>
<path d="M34.83 26.1442C34.5952 26.1442 34.3649 26.2397 34.1988 26.4058C34.0328 26.5718 33.9373 26.8021 33.9373 27.0369C33.9373 27.2717 34.0327 27.502 34.1988 27.6681C34.365 27.8341 34.5952 27.9297 34.83 27.9297C35.0648 27.9297 35.2951 27.8342 35.4611 27.6681C35.6271 27.502 35.7227 27.2717 35.7227 27.0369C35.7227 26.8021 35.6272 26.5718 35.4611 26.4058C35.2951 26.2397 35.0648 26.1442 34.83 26.1442Z" fill="#E39F24"/>
</g>
<defs>
<clipPath id="clip0_1_26">
<rect width="45.7085" height="45.7085" fill="white" transform="translate(0.90625 0.784912)"/>
</clipPath>
</defs>
</svg>
