<svg width="62" height="63" viewBox="0 0 62 63" fill="none" xmlns="http://www.w3.org/2000/svg">
<rect width="62" height="63" fill="#F5F5F5"/>
<g id="Landing page">
<rect width="1920" height="6747" transform="translate(-1128 -3560)" fill="white"/>
<g id="Group 1000004192">
<line id="Line" x1="-731.781" y1="30.4067" x2="420.328" y2="30.4066" stroke="url(#paint0_linear_0_1)" stroke-width="3" stroke-linecap="round" stroke-dasharray="2 15"/>
<g id="Group 1000004187">
<g id="Date">
<g id="Wallet">
<path id="Bg" d="M81.4619 31.9067C81.4619 59.4993 59.0939 81.8676 31.5016 81.8676C3.90925 81.8676 -18.4588 59.4993 -18.4588 31.9067C-18.4588 4.31403 3.90925 -18.0542 31.5016 -18.0542C59.0939 -18.0542 81.4619 4.31403 81.4619 31.9067Z" fill="white" stroke="#ADABAB" stroke-width="2.51999"/>
</g>
<g id="fi_4461721">
<g id="Translator">
<path id="Vector" d="M54.6694 4.64868H28.0723C27.1905 4.64868 26.3449 5.00582 25.7214 5.64154C25.0979 6.27725 24.7476 7.13947 24.7476 8.03851V27.2475H8.12444C7.24269 27.2475 6.39706 27.6046 5.77357 28.2404C5.15008 28.8761 4.7998 29.7383 4.7998 30.6373V50.9763C4.7998 51.8753 5.15008 52.7375 5.77357 53.3732C6.39706 54.009 7.24269 54.3661 8.12444 54.3661H10.3409C10.3409 57.7559 10.1414 58.3209 10.9282 58.7503C11.715 59.1797 11.5377 59.0554 18.4308 54.3661H34.7215C35.6033 54.3661 36.4489 54.009 37.0724 53.3732C37.6959 52.7375 38.0462 51.8753 38.0462 50.9763V31.7673H44.363C51.245 36.4452 51.0788 36.5808 51.8656 36.1514C52.6524 35.7221 52.4529 35.0328 52.4529 31.7673H54.6694C55.5511 31.7673 56.3967 31.4101 57.0202 30.7744C57.6437 30.1387 57.994 29.2765 57.994 28.3774V8.03851C57.994 7.13947 57.6437 6.27725 57.0202 5.64154C56.3967 5.00582 55.5511 4.64868 54.6694 4.64868ZM35.8298 50.9763C35.8298 51.276 35.713 51.5634 35.5052 51.7753C35.2973 51.9872 35.0155 52.1062 34.7215 52.1062H18.0984C17.6329 52.1062 17.8545 52.0384 12.5573 55.6429V53.2362C12.5573 52.9365 12.4405 52.6491 12.2327 52.4372C12.0249 52.2253 11.743 52.1062 11.4491 52.1062H8.12444C7.83053 52.1062 7.54865 51.9872 7.34082 51.7753C7.13299 51.5634 7.01623 51.276 7.01623 50.9763V30.6373C7.01623 30.3377 7.13299 30.0502 7.34082 29.8383C7.54865 29.6264 7.83053 29.5074 8.12444 29.5074H24.9471C25.1757 30.1668 25.5988 30.7379 26.1583 31.1425C26.7178 31.5471 27.3863 31.7653 28.0723 31.7673H35.8298V50.9763ZM55.7776 28.3774C55.7776 28.6771 55.6608 28.9645 55.453 29.1764C55.2452 29.3883 54.9633 29.5074 54.6694 29.5074H51.3447C51.0508 29.5074 50.7689 29.6264 50.5611 29.8383C50.3533 30.0502 50.2365 30.3377 50.2365 30.6373V33.0441C44.9282 29.4396 45.1609 29.5074 44.6954 29.5074H28.0723C27.7783 29.5074 27.4965 29.3883 27.2886 29.1764C27.0808 28.9645 26.9641 28.6771 26.9641 28.3774V8.03851C26.9641 7.73883 27.0808 7.45142 27.2886 7.23952C27.4965 7.02761 27.7783 6.90856 28.0723 6.90856H54.6694C54.9633 6.90856 55.2452 7.02761 55.453 7.23952C55.6608 7.45142 55.7776 7.73883 55.7776 8.03851V28.3774Z" fill="url(#paint1_linear_0_1)" stroke="url(#paint2_linear_0_1)" stroke-width="0.96"/>
<path id="Vector_2" d="M42.404 12.1402C42.3223 11.9294 42.1803 11.7486 41.9965 11.6211C41.8128 11.4937 41.5956 11.4255 41.3734 11.4255C41.1511 11.4255 40.934 11.4937 40.7502 11.6211C40.5664 11.7486 40.4244 11.9294 40.3427 12.1402L35.9099 23.4396C35.856 23.5776 35.8294 23.725 35.8314 23.8735C35.8335 24.022 35.8642 24.1687 35.9218 24.3051C35.9794 24.4415 36.0628 24.565 36.1673 24.6685C36.2717 24.772 36.3951 24.8536 36.5305 24.9085C36.6658 24.9634 36.8104 24.9906 36.9561 24.9885C37.1017 24.9864 37.2456 24.9551 37.3793 24.8963C37.5131 24.8376 37.6342 24.7525 37.7358 24.646C37.8373 24.5396 37.9173 24.4137 37.9711 24.2757L39.0794 21.5752H43.6341C43.8225 21.5752 43.6341 21.1345 44.8199 24.2531C44.9286 24.5318 45.1415 24.7551 45.4117 24.8737C45.6819 24.9924 45.9872 24.9968 46.2606 24.8859C46.5339 24.775 46.7529 24.558 46.8692 24.2825C46.9856 24.007 46.9899 23.6957 46.8812 23.417L42.404 12.1402ZM39.9105 19.3379L41.3734 15.5978L42.8362 19.3379H39.9105Z" fill="url(#paint3_linear_0_1)" stroke="url(#paint4_linear_0_1)" stroke-width="0.96"/>
<path id="Vector_3" d="M25.8553 36.2872H22.5306V35.1573C22.5306 34.8576 22.4139 34.5702 22.206 34.3583C21.9982 34.1464 21.7163 34.0273 21.4224 34.0273C21.1285 34.0273 20.8466 34.1464 20.6388 34.3583C20.431 34.5702 20.3142 34.8576 20.3142 35.1573V36.2872H16.9896C16.6956 36.2872 16.4138 36.4063 16.2059 36.6182C15.9981 36.8301 15.8813 37.1175 15.8813 37.4172C15.8813 37.7168 15.9981 38.0043 16.2059 38.2162C16.4138 38.4281 16.6956 38.5471 16.9896 38.5471H23.5169C23.188 40.0232 22.4628 41.3769 21.4224 42.4567C21.0868 42.1025 20.7758 41.7249 20.4915 41.3268C20.3175 41.0979 20.0641 40.9459 19.7834 40.9021C19.5027 40.8583 19.2163 40.926 18.9831 41.0912C18.75 41.2565 18.5879 41.5067 18.5304 41.7902C18.4729 42.0737 18.5243 42.3689 18.674 42.6149C19.0106 43.108 19.3809 43.5762 19.7823 44.016C19.0819 44.5635 18.3409 45.0546 17.5658 45.4849C17.3261 45.632 17.1498 45.8662 17.0723 46.1403C16.9948 46.4145 17.022 46.7084 17.1482 46.963C17.2745 47.2176 17.4905 47.4141 17.753 47.513C18.0155 47.6119 18.3049 47.6059 18.5632 47.4962C19.5787 46.9494 20.5368 46.2982 21.4224 45.5527C22.3027 46.2827 23.2489 46.9258 24.2483 47.4736C24.3786 47.5404 24.5205 47.5804 24.6659 47.5912C24.8113 47.6021 24.9573 47.5837 25.0958 47.537C25.2342 47.4903 25.3622 47.4163 25.4726 47.3191C25.5829 47.222 25.6734 47.1036 25.7389 46.9708C25.8044 46.838 25.8436 46.6934 25.8542 46.5451C25.8649 46.3969 25.8468 46.2479 25.801 46.1068C25.7552 45.9657 25.6826 45.8351 25.5873 45.7226C25.4921 45.6101 25.376 45.5178 25.2457 45.4511C24.4681 45.0295 23.7267 44.5419 23.0293 43.9934C24.4726 42.5091 25.4323 40.6074 25.7777 38.5471C26.0716 38.5576 26.3576 38.4486 26.5727 38.2441C26.7878 38.0396 26.9144 37.7564 26.9247 37.4567C26.935 37.157 26.8281 36.8655 26.6275 36.6461C26.427 36.4268 26.1492 36.2977 25.8553 36.2872Z" fill="url(#paint5_linear_0_1)" stroke="url(#paint6_linear_0_1)" stroke-width="0.96"/>
</g>
</g>
</g>
</g>
</g>
</g>
<defs>
<linearGradient id="paint0_linear_0_1" x1="-681.943" y1="31.5109" x2="-679.318" y2="83.9156" gradientUnits="userSpaceOnUse">
<stop stop-color="#E39F24"/>
<stop offset="1" stop-color="#AB6E00"/>
</linearGradient>
<linearGradient id="paint1_linear_0_1" x1="7.16399" y1="-16.83" x2="55.4403" y2="-16.0122" gradientUnits="userSpaceOnUse">
<stop stop-color="#E39F24"/>
<stop offset="1" stop-color="#AB6E00"/>
</linearGradient>
<linearGradient id="paint2_linear_0_1" x1="7.16399" y1="-16.83" x2="55.4403" y2="-16.0122" gradientUnits="userSpaceOnUse">
<stop stop-color="#E39F24"/>
<stop offset="1" stop-color="#AB6E00"/>
</linearGradient>
<linearGradient id="paint3_linear_0_1" x1="36.3259" y1="6.05681" x2="46.4264" y2="6.20002" gradientUnits="userSpaceOnUse">
<stop stop-color="#E39F24"/>
<stop offset="1" stop-color="#AB6E00"/>
</linearGradient>
<linearGradient id="paint4_linear_0_1" x1="36.3259" y1="6.05681" x2="46.4264" y2="6.20002" gradientUnits="userSpaceOnUse">
<stop stop-color="#E39F24"/>
<stop offset="1" stop-color="#AB6E00"/>
</linearGradient>
<linearGradient id="paint5_linear_0_1" x1="16.3722" y1="28.6571" x2="26.3961" y2="28.7981" gradientUnits="userSpaceOnUse">
<stop stop-color="#E39F24"/>
<stop offset="1" stop-color="#AB6E00"/>
</linearGradient>
<linearGradient id="paint6_linear_0_1" x1="16.3722" y1="28.6571" x2="26.3961" y2="28.7981" gradientUnits="userSpaceOnUse">
<stop stop-color="#E39F24"/>
<stop offset="1" stop-color="#AB6E00"/>
</linearGradient>
</defs>
</svg>
